<!-- Created with Inkscape (http://www.inkscape.org/) -->
<svg
   width="100%"
   height="100%"
   viewBox="0 0 63.45657 19.51671"
   version="1.1"
   xmlns="http://www.w3.org/2000/svg" >

  <g id="catear">
    <g transform="translate(-58.119872,-72.037335)">
      <path
         style="opacity:0.99;fill:#ff80b2;stroke:none;stroke-width:8.47645"
         id="path16369-4"
         transform="matrix(-0.45017068,0.34161544,0.26668374,0.58508321,154.72333,-174.57527)"
         d="m 305.0871,257.98607 c -0.22064,0.38217 -2.88223,0.69078 -3.32352,0.69078 -0.44129,0 -3.10288,-0.30861 -3.32352,-0.69078 -0.22065,-0.38217 0.84288,-2.84148 1.06353,-3.22365 0.22064,-0.38217 1.8187,-2.53286 2.25999,-2.53286 0.44129,0 2.03935,2.15069 2.26,2.53286 0.22064,0.38217 1.28417,2.84148 1.06352,3.22365 z" />
      <path
         style="opacity:0.99;fill:#ff80b2;stroke:none;stroke-width:8.47645"
         id="path16369-4-1"
         transform="matrix(0.45017068,0.34161544,-0.26668374,0.58508321,25.609993,-174.65606)"
         d="m 305.0871,257.98607 c -0.22064,0.38217 -2.88223,0.69078 -3.32352,0.69078 -0.44129,0 -3.10288,-0.30861 -3.32352,-0.69078 -0.22065,-0.38217 0.84288,-2.84148 1.06353,-3.22365 0.22064,-0.38217 1.8187,-2.53286 2.25999,-2.53286 0.44129,0 2.03935,2.15069 2.26,2.53286 0.22064,0.38217 1.28417,2.84148 1.06352,3.22365 z" />
    </g>
  </g>
  <g
     id="main-text"
     transform="translate(-58.119872,-72.137335)">
    <g
       aria-label="Flisan"
       id="text2300"
       style="font-weight:600;font-size:22.5778px;line-height:1.25;font-family:'IBM Plex Sans JP';-inkscape-font-specification:'IBM Plex Sans JP, Semi-Bold';fill:#333333;stroke-width:0.264583">
      <path
         d="m 62.305223,83.756863 v 7.066845 H 59.324956 V 74.274196 h 10.521245 v 2.6416 h -7.540978 v 4.199467 h 6.615289 v 2.6416 z"
         style="font-size:22.5778px" />
      <path
         d="m 75.693805,90.823708 q -1.467556,0 -2.212623,-0.745067 -0.722489,-0.745067 -0.722489,-2.122311 V 73.280774 h 2.889956 v 15.24 h 1.648178 v 2.302934 z"
         style="font-size:22.5778px" />
      <path
         d="m 81.112465,76.531974 q -0.857956,0 -1.286934,-0.383822 -0.4064,-0.4064 -0.4064,-1.083733 v -0.428978 q 0,-0.677333 0.4064,-1.061156 0.428978,-0.4064 1.286934,-0.4064 0.857955,0 1.264355,0.4064 0.428978,0.383823 0.428978,1.061156 v 0.428978 q 0,0.677333 -0.428978,1.083733 -0.4064,0.383822 -1.264355,0.383822 z m 1.444977,14.291734 H 79.667487 V 78.473663 h 2.889955 z"
         style="font-size:22.5778px" />
      <path
         d="m 90.120983,91.117219 q -1.670755,0 -2.912533,-0.587023 -1.2192,-0.587022 -2.167467,-1.715911 l 1.806222,-1.715911 q 1.444978,1.738489 3.409245,1.738489 1.061155,0 1.580444,-0.383822 0.541867,-0.4064 0.541867,-1.128889 0,-0.587022 -0.383822,-0.925689 -0.383822,-0.361244 -1.2192,-0.474133 l -1.196622,-0.158045 q -2.009423,-0.270933 -3.048,-1.151466 -1.038578,-0.903111 -1.038578,-2.551289 0,-1.783645 1.264355,-2.822222 1.286934,-1.061156 3.364089,-1.061156 1.693334,0 2.777067,0.474133 1.083733,0.474134 2.009422,1.467556 l -1.715911,1.715911 q -0.564444,-0.6096 -1.332089,-0.993422 -0.767644,-0.383822 -1.6256,-0.383822 -0.970844,0 -1.467555,0.383822 -0.496712,0.361244 -0.496712,0.993422 0,0.632178 0.383823,0.970844 0.4064,0.338667 1.309511,0.474134 l 1.241778,0.180622 q 3.973688,0.541867 3.973688,3.635022 0,1.196622 -0.632177,2.099734 -0.632178,0.903111 -1.783645,1.4224 -1.128889,0.496711 -2.6416,0.496711 z"
         style="font-size:22.5778px" />
      <path
         d="m 100.9583,91.117219 q -1.851378,0 -2.912533,-0.993423 -1.038578,-0.993422 -1.038578,-2.664177 0,-1.873956 1.354667,-2.822223 1.377244,-0.948266 3.951114,-0.948266 h 2.14489 v -0.948267 q 0,-2.257778 -2.37067,-2.257778 -1.016,0 -1.69333,0.428978 -0.677338,0.428978 -1.174049,1.174045 L 97.5039,80.550819 q 1.490133,-2.370667 4.76391,-2.370667 2.46098,0 3.77049,1.151467 1.30951,1.128889 1.30951,3.228622 v 5.960533 h 1.24178 v 2.302934 h -1.60302 q -0.97085,0 -1.55787,-0.564445 -0.58702,-0.587022 -0.69991,-1.557867 h -0.13547 q -0.31609,1.174045 -1.28693,1.806223 -0.94827,0.6096 -2.34809,0.6096 z m 0.94827,-2.099734 q 1.10631,0 1.8288,-0.496711 0.72249,-0.519289 0.72249,-1.399822 v -1.693333 h -2.00943 q -1.2192,0 -1.85137,0.4064 -0.632182,0.4064 -0.632182,1.196622 v 0.4064 q 0,0.790222 0.496712,1.196622 0.51929,0.383822 1.44498,0.383822 z"
         style="font-size:22.5778px" />
      <path
         d="M 111.09572,90.823708 V 78.473663 h 2.88995 v 2.032 h 0.11289 q 0.4064,-1.061155 1.24178,-1.693333 0.85796,-0.632178 2.21262,-0.632178 1.91911,0 2.93511,1.264356 1.03858,1.264355 1.03858,3.567288 v 7.811912 h -2.88995 v -7.5184 q 0,-1.377245 -0.51929,-2.054578 -0.51929,-0.677334 -1.60303,-0.677334 -1.06115,0 -1.80622,0.541867 -0.72249,0.519289 -0.72249,1.490133 v 8.218312 z"
         style="font-size:22.5778px" />
    </g>
  </g>
  <mask
     id="masker"
     transform="translate(-58.119872,-72.137335)">
    <path
       style="fill:none;stroke-width:3.09909;stroke-linecap:butt;stroke-linejoin:miter;stroke-opacity:1"
       d="M 60.826358,73.229193 V 91.309582" />
    <path
       style="fill:none;stroke-width:3.09909;stroke-linecap:butt;stroke-linejoin:miter;stroke-opacity:1"
       d="M 58.119872,75.361668 H 70.476107" />
    <path
       style="fill:none;stroke-width:3.09909;stroke-linecap:butt;stroke-linejoin:miter;stroke-opacity:1"
       d="M 58.25782,82.648638 H 70.060954" />
    <path
       style="fill:none;stroke-width:3.09909;stroke-linecap:butt;stroke-linejoin:miter;stroke-opacity:1"
       d="m 74.135543,72.53049 v 16.443557 c 0,0 -0.103759,0.879671 0.969346,0.887561 1.073107,0 2.791081,0 2.791081,0" />
    <path
       style="fill:none;stroke-width:3.52365;stroke-linecap:butt;stroke-linejoin:miter;stroke-opacity:1"
       d="M 81.015286,72.137335 V 91.23946" />
    <path
       style="fill:none;stroke-width:3.09909;stroke-linecap:butt;stroke-linejoin:miter;stroke-opacity:1"
       d="m 94.556148,81.382178 c 0,0 -1.702303,-2.119921 -3.858509,-2.2214 -2.156203,-0.101478 -3.805558,1.731444 -3.805558,1.731444 0,0 -1.566119,3.070821 3.501557,3.876842 5.067673,0.806021 3.076033,3.607303 3.076033,3.607303 0,0 -0.705996,1.709129 -3.297907,1.671047 -2.591914,-0.03808 -4.874072,-2.571808 -4.874072,-2.571808" />
    <path
       style="fill:none;stroke-width:3.7958;stroke-linecap:butt;stroke-linejoin:miter;stroke-opacity:1"
       d="m 97.900793,81.886677 c 0,0 1.72403,-2.807041 4.654637,-2.746605 2.91178,0 3.65442,2.611638 3.65442,2.611638 v 7.15881 c 0,0 0.006,0.804244 0.77298,0.824167 0.76747,0.01992 1.39418,0.02145 1.39418,0.02145 l 0.2729,-10e-4" />
    <path
       style="fill:none;stroke-width:3.09909;stroke-linecap:butt;stroke-linejoin:miter;stroke-opacity:1"
       d="m 106.00975,84.587191 h -4.97956 c 0,0 -2.48445,0.197509 -2.48445,1.938163 0,1.740656 0,1.007991 0,1.007991 0,0 -0.31858,2.469912 1.88544,2.469912 2.20402,0 2.06157,-0.188426 3.10078,-0.803786 1.03921,-0.615357 1.44163,-2.435926 1.44163,-2.435926" />
    <path
       style="fill:none;stroke-width:3.09909;stroke-linecap:butt;stroke-linejoin:miter;stroke-opacity:1"
       d="M 112.51477,91.60382 V 77.826019" />
    <path
       style="fill:none;stroke-width:3.68592;stroke-linecap:butt;stroke-linejoin:miter;stroke-opacity:1"
       d="m 112.50019,82.238671 c 0,0 1.84215,-2.561201 3.21556,-2.787068 1.37342,-0.225866 2.63862,0.412888 2.63862,0.412888 0,0 1.37911,0.741939 1.37911,2.796273 v 8.888944" />
  </mask>
</svg>
